<svg xmlns="http://www.w3.org/2000/svg" width="1128" height="191" viewBox="0 0 1128 191" fill="none">
  <style>
    @import url('https://fonts.googleapis.com/css2?family=DM+Sans:wght@700&display=swap');
    .text-Placi { fill: #f1f0ff; font-family: 'DM Sans', sans-serif; font-weight: 700; font-size: 40px; letter-spacing: -0.03em; }
    .text-Q { fill: #8b5cf6; }
  </style>

  <defs>
    <radialGradient id="bgGlow" cx="50%" cy="50%" r="60%">
      <stop offset="0%" stop-color="#8b5cf6" stop-opacity="0.18"/>
      <stop offset="100%" stop-color="#09090f" stop-opacity="0"/>
    </radialGradient>
    
    <linearGradient id="gMain" x1="0" y1="0" x2="72" y2="72" gradientUnits="userSpaceOnUse">
      <stop offset="0%" stop-color="#6366f1"/>
      <stop offset="55%" stop-color="#8b5cf6"/>
      <stop offset="100%" stop-color="#a855f7"/>
    </linearGradient>
  </defs>

  <!-- Background -->
  <rect width="1128" height="191" fill="#09090f"/>
  <rect width="1128" height="191" fill="url(#bgGlow)"/>

  <!-- Centered Content -->
  <g transform="translate(382, 45) scale(1.4)">
    
    <!-- Icon -->
    <rect width="72" height="72" rx="18" fill="#13111f"/>
    <path d="M 14 32 C 14 22 20 15 28 15 C 28 15 30 15 30 17 L 30 44 C 30 44 28 45 26 44 C 20 42 14 40 14 32 Z" fill="url(#gMain)" opacity="0.95"/>
    <path d="M 30 17 C 30 15 32 15 34 15 C 42 15 48 22 48 30 C 48 38 44 43 38 44 C 34 45 30 44 30 44 L 30 17 Z" fill="url(#gMain)" opacity="0.85"/>
    <rect x="27" y="44" width="7" height="5" rx="2" fill="url(#gMain)" opacity="0.7"/>
    <line x1="30" y1="16" x2="30" y2="44" stroke="#13111f" stroke-width="1.5"/>
    <path d="M 17 28 Q 22 26 26 30 Q 22 34 17 36" stroke="#13111f" stroke-width="1.2" fill="none" stroke-linecap="round"/>
    <path d="M 44 25 Q 38 27 36 32 Q 39 37 44 38" stroke="#13111f" stroke-width="1.2" fill="none" stroke-linecap="round"/>
    <circle cx="42" cy="46" r="10" fill="#1e1b2e" stroke="url(#gMain)" stroke-width="3"/>
    <circle cx="42" cy="46" r="7" fill="rgba(99,102,241,0.12)"/>
    <line x1="49.5" y1="53.5" x2="56" y2="60" stroke="url(#gMain)" stroke-width="3.5" stroke-linecap="round"/>
    <ellipse cx="42" cy="43" rx="4.5" ry="1.5" fill="#a78bfa" opacity="0.9"/>
    <ellipse cx="42" cy="46" rx="4.5" ry="1.5" fill="#8b5cf6" opacity="0.85"/>
    <ellipse cx="42" cy="49" rx="4.5" ry="1.5" fill="#7c3aed" opacity="0.8"/>

    <!-- Text -->
    <text x="92" y="52" class="text-Placi">Placi<tspan class="text-Q">Q</tspan></text>
    
  </g>
</svg>